<svg xmlns="http://www.w3.org/2000/svg" viewBox="0 0 407.65 407.65"><defs><style>.e{fill:#f6dbcd}.f{fill:#261715}.g{fill:#fffefe}.h{fill:#db4b15}</style></defs><path id="a" d="M202.29 390.45c-11.71.06-22.84-2.62-33.71-6.82-20.04-7.73-39.02-17.41-56.2-30.4-12.38-9.36-23.6-19.93-33.01-32.31-5.2-6.85-9.22-14.38-11.92-22.55-1.05-3.16-2.97-5.27-5.92-6.7-5.55-2.68-10.63-6.1-15.15-10.3-10.29-9.56-16.45-21.31-18.17-35.26-2.13-17.28 2-32.94 12.77-46.71 1.08-1.39 2.55-2.49 3.93-3.62 3.53-2.9 3.88-4.14 1.91-8.28-.75-1.57-1.61-3.12-2.68-4.48-5.53-7.04-6.31-14.78-3.53-23.06 2.92-8.7 6.99-16.8 13.55-23.34 2.77-2.76 5.97-5.12 9.17-7.39 2.27-1.61 3.71-3.52 4.16-6.25 1.18-7.06 1.31-14.16.88-21.28-.32-5.27-1.01-10.52-1.11-15.79-.11-6.21 2.83-10.91 8.33-13.84 8.36-4.45 17.13-7.83 26.37-9.95 7.72-1.77 15.54-2.49 23.45-2.09 2.39.12 4.23-.86 5.77-2.6 4.84-5.47 8.65-11.6 11.85-18.14 1.2-2.45 2.31-4.95 3.73-7.27 3.67-6.01 9.29-8.34 16.06-7.4 15.81 2.19 30.24 7.79 42.64 18.1 1.62 1.34 3.37 1.71 5.38.96 8.02-3 15.29-7.14 21.14-13.55 5.88-6.45 13.64-7.71 21.1-3.16 13.76 8.39 24.4 19.66 30.81 34.63 1.51 3.54 3.91 5.66 7.83 6.27 7 1.09 13.96 1.3 20.99.34 3.42-.47 6.89-.48 10.22.73 3.95 1.44 6.53 4.46 8.72 7.85 5.13 7.95 8.31 16.69 10.28 25.9a94.5 94.5 0 0 1 2.09 22.13c-.04 1.69-.14 3.42-.5 5.06-1.8 8.22.95 14.79 7.2 20.07 1.87 1.58 3.94 2.95 5.99 4.31 4.16 2.75 7.62 6.11 8.65 11.15.57 2.76.61 5.68.55 8.52-.13 6.59-1.01 13.1-2.66 19.5-.73 2.85.23 5.34 1.93 7.66 4.02 5.49 7.14 11.47 9.06 18 6.03 20.51 3.18 39.47-10.25 56.43-5.42 6.84-12.27 12.01-20.07 15.86-3.33 1.65-5.46 4-6.73 7.54-4.57 12.79-11.82 23.98-21.26 33.67-17.23 17.68-37.24 31.54-59.34 42.42-10.59 5.21-21.47 9.75-32.93 12.75-7 1.84-14.13 2.71-21.37 2.72Z" class="g" data-name="レイヤー_3"/><path id="b" d="M121.67 71.58c2.45.16 4.83.21 7.18.48 2.66.31 4.76-.6 6.7-2.35 8.48-7.67 14.53-17.02 19.01-27.45.16-.37.32-.74.48-1.1 1.72-3.79 4.2-5.26 8.27-4.52 9.86 1.81 19.36 4.72 27.8 10.3 3.41 2.26 6.58 4.93 9.61 7.7 2.41 2.21 4.84 3.04 8.04 2.11 10.02-2.91 19.4-7.01 27.28-14.03 1.47-1.31 2.82-2.75 4.21-4.14 2.32-2.33 4.79-2.78 7.49-1.02 11.32 7.35 20.29 16.77 25.56 29.39.48 1.15.9 2.33 1.31 3.51 1.03 3.02 3.02 5.1 5.97 6.31 6.19 2.54 12.63 3.94 19.31 3.89 4.51-.04 9.02-.38 13.52-.79 4.04-.37 7.03.96 9.06 4.55 4.93 8.71 7.86 18.06 9 27.97.36 3.15.74 6.33.7 9.49-.05 3.66-.51 7.31-.87 10.96-.35 3.5-1.16 7.03.7 10.37 1.52 2.73 2.97 5.51 4.67 8.12 3.65 5.59 8.32 10.15 14.21 13.4 2.99 1.65 3.51 4.4 3.39 7.46-.34 9.3-1.96 18.38-4.86 27.21-.53 1.63 0 2.72 1.16 3.78 5.35 4.87 9.47 10.65 11.8 17.51 6.23 18.38 3.17 35.04-9.81 49.63-4.31 4.85-9.27 8.96-15.49 11.22-1.79.65-3.68 1.07-5.54 1.5-1.32.31-2.14 1.02-2.47 2.32-4.78 18.73-15.09 34.06-29.46 46.66-19.4 17.02-41.02 30.55-65.17 39.85-7 2.69-14.17 4.86-21.64 5.94-8.46 1.22-16.86.86-25.23-.75-11.06-2.12-21.23-6.65-31.31-11.45-13.79-6.57-26.95-14.19-39.02-23.59-11.06-8.62-21.25-18.13-29.3-29.72-5.37-7.73-9.32-16.13-11.61-25.28-.57-2.28-1.7-3.7-4.11-4.37-12.23-3.41-20.96-11.21-27.03-22.14-4.17-7.51-6.29-15.62-5.62-24.21.81-10.27 3.18-20.11 9.7-28.48 3.18-4.08 7.03-7.07 12.34-7.85 2.12-.31 2.61-1.37 1.77-3.52-3.08-7.81-6.36-15.52-10.87-22.64-1.58-2.49-2.02-5.09-1.17-7.93 2.12-7.12 4.99-13.85 9.89-19.57 3.41-3.97 7.51-7.01 12.27-9.13 1.97-.87 3.1-2.26 3.71-4.27 2.04-6.76 3.01-13.68 3.22-20.74.23-7.62-.37-15.19-1.32-22.75-.5-3.96.82-6.44 4.41-8.15 9.53-4.53 19.41-7.91 29.94-9.13 2.75-.32 5.53-.39 8.21-.57Z" class="f" data-name="レイヤー_4"/><g id="c" data-name="レイヤー_5"><path d="M310.92 172.1c0 1.66-.11 3.32.03 4.97.21 2.51 1.34 4.7 2.73 6.76 1.2 1.78 2.35 3.6 3.67 5.29 3.88 4.96 5.5 10.6 5.57 16.84.09 7.44-.07 14.85-1.58 22.17-2.21 10.76-6.79 20.28-14.59 28.13-2.4 2.41-2.39 4.53 0 6.97.53.54 1.08 1.08 1.64 1.59 2.94 2.66 6.22 4.23 10.35 3.72 2.61-.32 3.27.36 3.15 2.97-.4 8.64-2.65 16.82-6.31 24.62-4.84 10.31-11.9 18.98-20.02 26.85-13.82 13.39-30.05 23.27-46.85 32.36-3.3 1.78-6.48 2.37-10.01 1.34-4.88-1.42-9.76-2.84-14.62-4.31-.93-.28-1.81-.76-2.66-1.25-3.73-2.18-4.97-5.34-3.77-9.46.98-3.36.52-3.87-2.91-3.2-8.13 1.57-16.27 1.48-24.41.05-.09-.02-.17-.04-.26-.05-3-.5-3.49.03-2.75 2.97 1.25 4.95-.33 8.68-5.13 10.32-6.28 2.15-12.72 3.83-19.14 5.54-1.09.29-2.57 0-3.6-.53-13.78-7.14-27.25-14.82-39.43-24.52-11.33-9.03-21.2-19.38-28.42-32.04-4.78-8.38-7.5-17.44-8.39-27.04-.4-4.26.33-4.92 4.51-4.58 1.31.1 2.71-.03 3.96-.42 2.81-.88 5.25-2.46 7.32-4.56 1.73-1.76 2.03-3.56.83-5.73-.64-1.16-1.41-2.3-2.31-3.27-6.96-7.52-11.05-16.48-13.26-26.38-1.5-6.74-2.42-13.57-2.38-20.47.05-9.18 2.64-17.44 9.31-24.1 1.45-1.45 2.06-3.32 2.19-5.34.36-5.53.53-11.08 1.1-16.6 1.64-15.71 5.7-30.63 15.07-43.68 6.29-8.77 14.38-15.51 23.79-20.71 2.06-1.14 3.52-.93 5.2.76 1.77 1.78 3.49 3.6 5.18 5.45 1.9 2.08 4.03 2.54 6.64 1.4 6.1-2.66 12.07-5.58 17.73-9.11 1.51-.94 3.11-1.75 4.69-2.58 4.89-2.59 9.79-2.52 14.61.1 3.53 1.92 7 3.95 10.48 5.95 3 1.72 6.03 1.84 9.05.15 3-1.68 5.86-3.61 8.93-5.16 2.36-1.19 4.88-2.26 7.44-2.84 3.31-.75 6.44.52 9.4 1.97 1.72.84 3.35 1.88 5.04 2.78 5.17 2.74 10.29 5.57 15.54 8.13 3.88 1.89 5.55 1.43 8.63-1.6 1.05-1.03 2.07-2.11 3.08-3.19 2.65-2.83 4.56-3.16 7.93-1.19 11.3 6.59 20.28 15.49 26.65 26.96 5.27 9.48 8.38 19.69 9.91 30.38.78 5.44 1.16 10.93 1.71 16.4l-.26.03ZM329.43 274.1c0-2.81-.04-5.36.01-7.9.03-1.59 1.08-2.36 2.5-2.74 2.81-.75 5.34-1.99 7.44-4.05 2.89-2.83 4.23-6.39 4.62-10.3.44-4.39.21-8.77-2.63-12.42-1.37-1.76-3.2-3.21-4.98-4.6-1.81-1.41-2.04-2.08-.51-3.75.81-.89 1.69-1.74 2.65-2.46 2.47-1.83 5.37-1.51 7.49.72.25.26.44.63.74.77.6.26 1.49.74 1.84.51.55-.36 1.19-1.4 1.03-1.89-1.06-3.17-2.12-6.4-5.28-8.24-.5-.29-1.11-.5-1.46-.92-.39-.47-.94-1.39-.75-1.69.88-1.39 1.95-2.69 3.09-3.88.14-.14 1.38.43 1.77.93 3.22 4.06 5.68 8.55 7.15 13.53 3.39 11.42 2.61 22.41-3.99 32.54-4.08 6.26-9.22 11.53-16.34 14.43-1.31.54-2.71.88-4.42 1.42Z" class="e"/><path d="M330.72 253.84c.15-1.85.27-3.7.46-5.55.26-2.47.57-4.93.87-7.45 3.96 3.92 3.95 7.9.04 11.79-.44.44-.93.83-1.4 1.24l.03-.02ZM75.13 273.64c-4.03-.8-7.72-2.64-11-5.24-7.84-6.21-13.06-14.11-15.06-24-.74-3.66-.34-7.3.13-10.95.78-6.17 2.32-12.1 5.71-17.41 1.68-2.63 3.64-4.98 6.54-6.37 4.44-2.12 6.62-.99 7.32 4.24.06.44.01.89 0 1.34 0 1.04-.45 1.45-1.52 1.21-3.55-.79-6.5.37-8.71 3.12-1.27 1.58-2.23 3.43-3.15 5.25-.29.58-.23 1.53.04 2.15.58 1.32 1.9 1.52 2.77.37 1.28-1.68 2.8-2.59 4.93-2.32 2.45.31 4.56 1.29 6.09 3.27.4.51.74 1.19.77 1.81.03.5-.31 1.3-.71 1.51-4.97 2.51-7.64 6.63-8.33 12.02-.69 5.41.12 10.53 3.76 14.89 2.01 2.41 4.64 3.87 7.56 4.88 3.05 1.05 3.76 2.26 3.32 5.44-.22 1.57-.3 3.16-.46 4.8Z" class="e"/><path d="M71.94 241.3c.41 3.74.81 7.49 1.25 11.47-3.77-1.94-4.32-6.87-1.25-11.47" class="e"/></g><g id="d" data-name="レイヤー_1"><path d="M241.08 202.37c.91.12 2.04.19 3.12.44 2.1.49 2.84 1.74 2.12 3.79-1.58 4.48-4.34 8.16-7.95 11.22-1.66 1.41-3.44 2.54-5.71 2.65-3.54.17-6.48-1.72-7.62-4.94-1.13-3.16-.15-6.78 2.7-8.68 3.95-2.63 8.33-4.21 13.34-4.48M163.7 202.37c5 .28 9.44 1.8 13.4 4.54 3.19 2.21 3.98 6.74 1.99 9.92-2.32 3.71-6.16 4.85-9.94 2.75-5.23-2.91-8.5-7.52-10.6-13-.78-2.03.1-3.38 2.24-3.83 1-.21 2.03-.27 2.91-.38M201.78 297.74c-3.75.28-6.66-1.45-9.32-3.78-1.75-1.53-3.47-3.1-5.2-4.65-1.06-.95-1.19-1.8-.4-2.93.81-1.16 2.04-1.56 3.13-.79 1.93 1.37 3.81 2.82 5.63 4.33 4.91 4.08 9.17 4.15 14.09.09 1.24-1.02 2.37-2.18 3.59-3.23.39-.34.88-.61 1.37-.8 1.09-.43 2.04-.08 2.79.74.77.84.44 1.77-.07 2.6-2.76 4.43-6.84 6.94-11.87 7.98-1.22.25-2.48.29-3.72.43ZM206.56 326.7c1.7.09 14.04.73 23.05 1.29 1.82.11 2.51.96 2.4 2.68-.1 1.59-.87 2.24-2.74 2.14-6.83-.38-13.65-.94-20.48-1.15-5.54-.17-11.09 0-16.63.16-4.82.15-9.64.5-14.46.78-.89.05-1.78.18-2.67.22-1.19.04-1.97-.5-2.17-1.72-.25-1.55.2-2.55 1.47-2.88 1.07-.27 2.2-.39 3.31-.45 6.52-.35 13.04-.68 19.56-.98 0 0 7.67-.17 9.37-.08Z" class="f"/><path d="M129.01 249.48c1.11-1 1.12-2.21.79-3.55-.4-1.59-.79-3.19-1.08-4.81-.32-1.77.46-2.77 2.24-2.56 1.7.2 3.39.71 5.03 1.23 1.13.36.95 1.4.73 2.28-.6 2.42-.29 4.79.44 7.11.71 2.27 2.39 3.79 4.25 5.14-4.38.97-7.89-.72-11.02-3.6-.45-.42-.92-.82-1.38-1.23ZM263.45 254.32c3.53-2.23 4.99-5.57 5.01-9.61 0-.97-.18-1.95-.37-2.9-.24-1.17.11-1.93 1.28-2.25 1.29-.35 2.57-.79 3.88-1.01 2.23-.38 3.24.66 2.85 2.87-.26 1.44-.63 2.87-1 4.29-.35 1.37-.33 2.65.71 3.74-3.41 3.45-7.18 5.96-12.37 4.86ZM238.66 248.33c2.21-1.23 4.36-2.57 6.63-3.66 2.87-1.39 4.55-.65 4.72 2.47.19 3.43 2.02 5.44 4.56 7.17-3.38.64-6.75 1.01-10.11-.19-2.86-1.02-4.87-2.86-5.8-5.79M150.3 254.32c1.01-.86 2.2-1.58 2.98-2.62.68-.9 1.2-2.12 1.28-3.23.31-4.37 2-5.47 5.87-3.48 1.97 1.01 3.84 2.22 5.75 3.34-2.12 4.47-5.81 6.55-10.6 6.67-1.75.04-3.52-.44-5.28-.69Z" class="g"/><path d="M263.45 254.32c-2.96 1.06-5.92 1.01-8.88 0-2.54-1.74-4.37-3.74-4.56-7.17-.17-3.12-1.85-3.86-4.72-2.47-2.27 1.1-4.43 2.43-6.63 3.66-.09-.02-.17-.05-.26-.07-2.61-.62-2.85-1.43-1.33-3.68 4.33-6.41 10.66-9.37 18-10.67 9.53-1.68 19.06-3.38 28.6-5.06.18-.03.35-.05.53-.06 2.99-.29 3.85.72 2.86 3.56-1.16 3.32-2.31 6.65-3.74 9.86-1.5 3.36-3.99 5.89-7.5 7.26-1.04-1.09-1.07-2.37-.71-3.74.36-1.42.74-2.85 1-4.29.39-2.21-.62-3.25-2.85-2.87-1.31.22-2.59.66-3.88 1.01-1.17.32-1.52 1.08-1.28 2.25.2.95.38 1.93.37 2.9-.03 4.04-1.48 7.38-5.01 9.61Zm-11.38-8.62c.01 3.74 2.53 6.67 6.04 7.02 3.85.38 7.04-1.87 7.67-5.52.21-1.22.27-2.49.27-3.74 0-2.5-1.07-3.21-3.52-2.65-2.43.55-4.88 1.03-7.35 1.39-2.65.39-3.12.83-3.11 3.5M150.3 254.32c-2.96.9-5.92 1.12-8.89-.01-1.86-1.35-3.54-2.88-4.25-5.14-.73-2.32-1.03-4.68-.44-7.11.21-.87.4-1.92-.73-2.28-1.64-.52-3.33-1.03-5.03-1.23-1.78-.21-2.57.79-2.24 2.56.29 1.62.67 3.22 1.08 4.81.34 1.34.32 2.55-.79 3.55-1.55-1.32-3.31-2.46-4.63-3.99-3.27-3.79-5.78-8.04-6.76-13.04-.12-.61-.14-1.25-.1-1.87.12-1.56 1.01-2.28 2.53-1.99 11.48 2.18 22.97 4.36 34.44 6.6 5.81 1.14 10.11 4.51 13.26 9.42 1.51 2.34 1.14 3.14-1.58 3.72-1.91-1.12-3.78-2.33-5.75-3.34-3.87-1.99-5.56-.9-5.87 3.48-.08 1.11-.6 2.34-1.28 3.23-.78 1.03-1.97 1.76-2.98 2.62Zm-11.38-10.09h.05c0 .67-.07 1.35.01 2.01.33 2.57 1.31 4.82 3.81 5.93 2.55 1.13 5.08.85 7.39-.77 2.27-1.59 3.13-3.89 2.41-6.29s-2.49-3.54-5.44-3.73c-2.13-.14-4.25-.43-6.37-.73-1-.14-1.59.18-1.72 1.17-.1.8-.1 1.61-.15 2.41Z" class="f"/><path d="M252.07 245.7c0-2.66.46-3.1 3.11-3.5 2.46-.37 4.92-.84 7.35-1.39 2.46-.56 3.52.15 3.52 2.65 0 1.25-.06 2.51-.27 3.74-.64 3.65-3.82 5.9-7.67 5.52-3.51-.35-6.03-3.27-6.04-7.02M138.92 244.23c.04-.8.04-1.61.15-2.41.13-.99.72-1.31 1.72-1.17 2.12.3 4.24.59 6.37.73 2.94.19 4.72 1.33 5.44 3.73s-.14 4.7-2.41 6.29c-2.31 1.62-4.84 1.89-7.39.77-2.5-1.11-3.47-3.36-3.81-5.93-.09-.66-.01-1.34-.01-2.01h-.05Z" class="h"/></g></svg>