<?xml version="1.0" encoding="UTF-8" standalone="no"?>
<!DOCTYPE svg PUBLIC "-//W3C//DTD SVG 1.1//EN"
 "http://www.w3.org/Graphics/SVG/1.1/DTD/svg11.dtd">
<!-- Generated by graphviz version 14.1.1 (20251213.1925)
 -->
<!-- Title: G Pages: 1 -->
<svg width="1535pt" height="1397pt"
 viewBox="0.00 0.00 1535.00 1397.00" xmlns="http://www.w3.org/2000/svg" xmlns:xlink="http://www.w3.org/1999/xlink">
<g id="graph0" class="graph" transform="scale(1 1) rotate(0) translate(4 1393.03)">
<title>G</title>
<polygon fill="white" stroke="none" points="-4,4 -4,-1393.03 1530.65,-1393.03 1530.65,4 -4,4"/>
<g id="clust1" class="cluster">
<title>cluster_銀行</title>
<polygon fill="#eeeeff" stroke="black" points="149.7,-575.03 149.7,-742.03 539.85,-742.03 539.85,-575.03 149.7,-575.03"/>
<text xml:space="preserve" text-anchor="middle" x="344.78" y="-724.73" font-family="Helvetica,Arial,sans-serif" font-size="14.00">銀行</text>
</g>
<g id="clust2" class="cluster">
<title>cluster_カード</title>
<polygon fill="#eeeeff" stroke="black" points="609.85,-374.03 609.85,-1231.03 805.55,-1231.03 805.55,-374.03 609.85,-374.03"/>
<text xml:space="preserve" text-anchor="middle" x="707.7" y="-1213.73" font-family="Helvetica,Arial,sans-serif" font-size="14.00">クレジットカード</text>
</g>
<g id="clust3" class="cluster">
<title>cluster_証券</title>
<polygon fill="#eeeeff" stroke="black" points="875.55,-80.03 875.55,-381.03 1041.25,-381.03 1041.25,-80.03 875.55,-80.03"/>
<text xml:space="preserve" text-anchor="middle" x="958.4" y="-363.73" font-family="Helvetica,Arial,sans-serif" font-size="14.00">証券</text>
</g>
<g id="clust4" class="cluster">
<title>cluster_プリペイド</title>
<polygon fill="#eeeeff" stroke="black" points="882.68,-768.03 882.68,-1045.03 1034.12,-1045.03 1034.12,-768.03 882.68,-768.03"/>
<text xml:space="preserve" text-anchor="middle" x="958.4" y="-1027.73" font-family="Helvetica,Arial,sans-serif" font-size="14.00">プリペイドカード</text>
</g>
<g id="clust5" class="cluster">
<title>cluster_電子マネー</title>
<polygon fill="#eeeeff" stroke="black" points="1111.25,-822.03 1111.25,-1381.03 1518.65,-1381.03 1518.65,-822.03 1111.25,-822.03"/>
<text xml:space="preserve" text-anchor="middle" x="1314.95" y="-1363.73" font-family="Helvetica,Arial,sans-serif" font-size="14.00">電子マネー</text>
</g>
<!-- SBI新生銀行 -->
<g id="node1" class="node">
<title>SBI新生銀行</title>
<polygon fill="#fdf5e6" stroke="black" points="531.85,-629.29 408.4,-629.29 408.4,-582.76 531.85,-582.76 531.85,-629.29"/>
<text xml:space="preserve" text-anchor="middle" x="470.12" y="-608.79" font-family="Helvetica,Arial,sans-serif" font-size="14.00">SBI新生銀行</text>
<text xml:space="preserve" text-anchor="middle" x="470.12" y="-592.29" font-family="Helvetica,Arial,sans-serif" font-size="14.00">(金利 0.42%)</text>
</g>
<!-- リクルートカードMC -->
<g id="node6" class="node">
<title>リクルートカードMC</title>
<polygon fill="#fdf5e6" stroke="black" points="785.55,-732.04 629.85,-732.04 629.85,-672.01 785.55,-672.01 785.55,-732.04"/>
<text xml:space="preserve" text-anchor="middle" x="707.7" y="-711.54" font-family="Helvetica,Arial,sans-serif" font-size="14.00">リクルートカード</text>
<text xml:space="preserve" text-anchor="middle" x="707.7" y="-696.54" font-family="Helvetica,Arial,sans-serif" font-size="14.00">(MasterCard)</text>
<text xml:space="preserve" text-anchor="middle" x="707.7" y="-681.54" font-family="Helvetica,Arial,sans-serif" font-size="14.00">(ポイント1.2%)</text>
</g>
<!-- SBI新生銀行&#45;&gt;リクルートカードMC -->
<g id="edge10" class="edge">
<title>SBI新生銀行&#45;&gt;リクルートカードMC</title>
<path fill="none" stroke="purple" d="M529.36,-629.76C557.27,-641.13 591.23,-654.97 621.94,-667.48"/>
<polygon fill="purple" stroke="purple" points="620.23,-670.57 630.81,-671.1 622.87,-664.09 620.23,-670.57"/>
</g>
<!-- ビックカメラSuicaカード -->
<g id="node8" class="node">
<title>ビックカメラSuicaカード</title>
<polygon fill="#fdf5e6" stroke="black" points="771.68,-1200.48 643.73,-1200.48 643.73,-1139.58 771.68,-1139.58 771.68,-1200.48"/>
<text xml:space="preserve" text-anchor="middle" x="707.7" y="-1179.98" font-family="Helvetica,Arial,sans-serif" font-size="14.00">ビックカメラ</text>
<text xml:space="preserve" text-anchor="middle" x="707.7" y="-1164.98" font-family="Helvetica,Arial,sans-serif" font-size="14.00">Suicaカード</text>
<text xml:space="preserve" text-anchor="middle" x="707.7" y="-1148.48" font-family="Helvetica,Arial,sans-serif" font-size="14.00">(JCB)</text>
</g>
<!-- SBI新生銀行&#45;&gt;ビックカメラSuicaカード -->
<g id="edge7" class="edge">
<title>SBI新生銀行&#45;&gt;ビックカメラSuicaカード</title>
<path fill="none" stroke="purple" d="M522.82,-629.65C529.39,-634.56 535.37,-640.33 539.85,-647.03 658.5,-824.39 484.39,-949.41 609.85,-1122.03 616.16,-1130.7 624.47,-1137.9 633.59,-1143.84"/>
<polygon fill="purple" stroke="purple" points="631.63,-1146.75 642.02,-1148.82 635.19,-1140.72 631.63,-1146.75"/>
</g>
<!-- Amazonカード -->
<g id="node9" class="node">
<title>Amazonカード</title>
<polygon fill="#fdf5e6" stroke="black" points="769.8,-636.29 645.6,-636.29 645.6,-559.76 769.8,-559.76 769.8,-636.29"/>
<text xml:space="preserve" text-anchor="middle" x="707.7" y="-615.79" font-family="Helvetica,Arial,sans-serif" font-size="14.00">Amazon</text>
<text xml:space="preserve" text-anchor="middle" x="707.7" y="-600.79" font-family="Helvetica,Arial,sans-serif" font-size="14.00">Mastercard</text>
<text xml:space="preserve" text-anchor="middle" x="707.7" y="-585.79" font-family="Helvetica,Arial,sans-serif" font-size="14.00">(Amazonで</text>
<text xml:space="preserve" text-anchor="middle" x="707.7" y="-569.29" font-family="Helvetica,Arial,sans-serif" font-size="14.00">ポイント2%)</text>
</g>
<!-- SBI新生銀行&#45;&gt;Amazonカード -->
<g id="edge8" class="edge">
<title>SBI新生銀行&#45;&gt;Amazonカード</title>
<path fill="none" stroke="purple" d="M532.1,-603.96C563.19,-602.9 601.24,-601.61 633.87,-600.5"/>
<polygon fill="purple" stroke="purple" points="633.78,-604 643.65,-600.17 633.54,-597.01 633.78,-604"/>
</g>
<!-- リクルートカードJCB -->
<g id="node11" class="node">
<title>リクルートカードJCB</title>
<polygon fill="#fdf5e6" stroke="black" points="785.55,-442.04 629.85,-442.04 629.85,-382.01 785.55,-382.01 785.55,-442.04"/>
<text xml:space="preserve" text-anchor="middle" x="707.7" y="-421.54" font-family="Helvetica,Arial,sans-serif" font-size="14.00">リクルートカード</text>
<text xml:space="preserve" text-anchor="middle" x="707.7" y="-406.54" font-family="Helvetica,Arial,sans-serif" font-size="14.00">(JCB)</text>
<text xml:space="preserve" text-anchor="middle" x="707.7" y="-391.54" font-family="Helvetica,Arial,sans-serif" font-size="14.00">(ポイント1.2%)</text>
</g>
<!-- SBI新生銀行&#45;&gt;リクルートカードJCB -->
<g id="edge9" class="edge">
<title>SBI新生銀行&#45;&gt;リクルートカードJCB</title>
<path fill="none" stroke="purple" d="M489.21,-582.34C513.86,-551.24 560.61,-496.35 609.85,-460.03 615.5,-455.86 621.57,-451.89 627.81,-448.14"/>
<polygon fill="purple" stroke="purple" points="629.48,-451.21 636.41,-443.19 625.99,-445.14 629.48,-451.21"/>
</g>
<!-- EPOSカード -->
<g id="node12" class="node">
<title>EPOSカード</title>
<polygon fill="#fdf5e6" stroke="black" points="797.55,-1007.79 617.85,-1007.79 617.85,-946.26 797.55,-946.26 797.55,-1007.79"/>
<text xml:space="preserve" text-anchor="middle" x="707.7" y="-987.29" font-family="Helvetica,Arial,sans-serif" font-size="14.00">EPOSカードゴールド</text>
<text xml:space="preserve" text-anchor="middle" x="707.7" y="-970.79" font-family="Helvetica,Arial,sans-serif" font-size="14.00">(Visa)</text>
<text xml:space="preserve" text-anchor="middle" x="707.7" y="-955.79" font-family="Helvetica,Arial,sans-serif" font-size="14.00">(ポイント0.5%)</text>
</g>
<!-- SBI新生銀行&#45;&gt;EPOSカード -->
<g id="edge11" class="edge">
<title>SBI新生銀行&#45;&gt;EPOSカード</title>
<path fill="none" stroke="purple" d="M521.56,-629.55C528.47,-634.52 534.88,-640.33 539.85,-647.03 616.56,-750.37 529.6,-827.41 609.85,-928.03 612.97,-931.94 616.5,-935.58 620.3,-938.94"/>
<polygon fill="purple" stroke="purple" points="617.83,-941.45 627.83,-944.94 622.19,-935.98 617.83,-941.45"/>
</g>
<!-- dカード -->
<g id="node13" class="node">
<title>dカード</title>
<polygon fill="#fdf5e6" stroke="black" points="767.93,-523.98 647.48,-523.98 647.48,-478.08 767.93,-478.08 767.93,-523.98"/>
<text xml:space="preserve" text-anchor="middle" x="707.7" y="-503.48" font-family="Helvetica,Arial,sans-serif" font-size="14.00">dカード</text>
<text xml:space="preserve" text-anchor="middle" x="707.7" y="-486.98" font-family="Helvetica,Arial,sans-serif" font-size="14.00">(Mastercard)</text>
</g>
<!-- SBI新生銀行&#45;&gt;dカード -->
<g id="edge12" class="edge">
<title>SBI新生銀行&#45;&gt;dカード</title>
<path fill="none" stroke="purple" d="M521.36,-582.38C547.63,-570.14 580.38,-555.06 609.85,-542.03 619.58,-537.72 629.9,-533.26 640.03,-528.92"/>
<polygon fill="purple" stroke="purple" points="641.27,-532.2 649.1,-525.06 638.53,-525.76 641.27,-532.2"/>
</g>
<!-- マネックス証券 -->
<g id="node16" class="node">
<title>マネックス証券</title>
<polygon fill="#fdf5e6" stroke="black" points="1029.88,-278.03 886.93,-278.03 886.93,-242.03 1029.88,-242.03 1029.88,-278.03"/>
<text xml:space="preserve" text-anchor="middle" x="958.4" y="-254.23" font-family="Helvetica,Arial,sans-serif" font-size="14.00">マネックス証券</text>
</g>
<!-- SBI新生銀行&#45;&gt;マネックス証券 -->
<g id="edge17" class="edge">
<title>SBI新生銀行&#45;&gt;マネックス証券</title>
<path fill="none" stroke="purple" d="M473.97,-582.3C482.41,-523.25 513.14,-369.4 609.85,-299.03 686.55,-243.21 799.07,-241 875.13,-247.75"/>
<polygon fill="purple" stroke="purple" points="874.75,-251.23 885.04,-248.71 875.42,-244.26 874.75,-251.23"/>
<text xml:space="preserve" text-anchor="middle" x="699.49" y="-285.72" font-family="Helvetica,Arial,sans-serif" font-size="14.00">d払い残高積立</text>
<text xml:space="preserve" text-anchor="middle" x="699.49" y="-269.22" font-family="Helvetica,Arial,sans-serif" font-size="14.00">(ポイント0.5% 上限月5万円)</text>
</g>
<!-- SBIベネフィット -->
<g id="node17" class="node">
<title>SBIベネフィット</title>
<polygon fill="#fdf5e6" stroke="black" points="1033.25,-205.98 883.55,-205.98 883.55,-160.08 1033.25,-160.08 1033.25,-205.98"/>
<text xml:space="preserve" text-anchor="middle" x="958.4" y="-185.48" font-family="Helvetica,Arial,sans-serif" font-size="14.00">SBIベネフィット</text>
<text xml:space="preserve" text-anchor="middle" x="958.4" y="-168.98" font-family="Helvetica,Arial,sans-serif" font-size="14.00">(iDeCo)</text>
</g>
<!-- SBI新生銀行&#45;&gt;SBIベネフィット -->
<g id="edge15" class="edge">
<title>SBI新生銀行&#45;&gt;SBIベネフィット</title>
<path fill="none" stroke="purple" d="M472.18,-582.33C476.51,-515.81 498.52,-326.37 609.85,-236.03 683.37,-176.37 795.4,-169.55 872.28,-173.44"/>
<polygon fill="purple" stroke="purple" points="871.66,-176.91 881.84,-174 872.07,-169.92 871.66,-176.91"/>
</g>
<!-- PayPal -->
<g id="node23" class="node">
<title>PayPal</title>
<polygon fill="#fdf5e6" stroke="black" points="1243.45,-701.03 1157.5,-701.03 1157.5,-665.03 1243.45,-665.03 1243.45,-701.03"/>
<text xml:space="preserve" text-anchor="middle" x="1200.48" y="-677.23" font-family="Helvetica,Arial,sans-serif" font-size="14.00">PayPal</text>
</g>
<!-- SBI新生銀行&#45;&gt;PayPal -->
<g id="edge25" class="edge">
<title>SBI新生銀行&#45;&gt;PayPal</title>
<path fill="none" stroke="purple" d="M472.98,-582.49C481.39,-482.83 519.43,-97.37 609.85,-26.03 678.13,27.85 718.96,-17.83 805.55,-26.03 911.72,-36.07 963.45,1.92 1041.25,-71.03 1128.93,-153.24 1182.4,-542.8 1196.02,-653.58"/>
<polygon fill="purple" stroke="purple" points="1192.52,-653.82 1197.2,-663.33 1199.47,-652.98 1192.52,-653.82"/>
</g>
<!-- PayPay -->
<g id="node24" class="node">
<title>PayPay</title>
<polygon fill="#fdf5e6" stroke="black" points="1268.2,-1278.36 1132.75,-1278.36 1132.75,-1217.69 1268.2,-1217.69 1268.2,-1278.36"/>
<text xml:space="preserve" text-anchor="middle" x="1200.48" y="-1257.86" font-family="Helvetica,Arial,sans-serif" font-size="14.00">PayPay</text>
<text xml:space="preserve" text-anchor="middle" x="1200.48" y="-1242.86" font-family="Helvetica,Arial,sans-serif" font-size="14.00">(残高のとき</text>
<text xml:space="preserve" text-anchor="middle" x="1200.48" y="-1227.23" font-family="Helvetica,Arial,sans-serif" font-size="14.00">ポイント0.5%)</text>
</g>
<!-- SBI新生銀行&#45;&gt;PayPay -->
<g id="edge26" class="edge">
<title>SBI新生銀行&#45;&gt;PayPay</title>
<path fill="none" stroke="purple" d="M523.33,-629.79C529.74,-634.67 535.54,-640.38 539.85,-647.03 611.49,-757.41 512.43,-1146.57 609.85,-1235.03 682.64,-1301.12 978.05,-1275.36 1121.1,-1258.37"/>
<polygon fill="purple" stroke="purple" points="1121.37,-1261.86 1130.88,-1257.19 1120.53,-1254.91 1121.37,-1261.86"/>
</g>
<!-- 三井住友銀行 -->
<g id="node2" class="node">
<title>三井住友銀行</title>
<polygon fill="#fdf5e6" stroke="black" points="304.4,-629.54 175.7,-629.54 175.7,-584.51 304.4,-584.51 304.4,-629.54"/>
<text xml:space="preserve" text-anchor="middle" x="240.05" y="-609.04" font-family="Helvetica,Arial,sans-serif" font-size="14.00">三井住友銀行</text>
<text xml:space="preserve" text-anchor="middle" x="240.05" y="-594.04" font-family="Helvetica,Arial,sans-serif" font-size="14.00">(金利 0.2%)</text>
</g>
<!-- 三井住友銀行&#45;&gt;SBI新生銀行 -->
<g id="edge3" class="edge">
<title>三井住友銀行&#45;&gt;SBI新生銀行</title>
<path fill="none" stroke="purple" d="M304.88,-606.75C333.39,-606.62 367.12,-606.47 396.57,-606.34"/>
<polygon fill="purple" stroke="purple" points="396.56,-609.84 406.54,-606.3 396.53,-602.84 396.56,-609.84"/>
<text xml:space="preserve" text-anchor="middle" x="328.12" y="-593.22" font-family="Helvetica,Arial,sans-serif" font-size="14.00">自動送金</text>
</g>
<!-- 楽天銀行 -->
<g id="node4" class="node">
<title>楽天銀行</title>
<polygon fill="#fdf5e6" stroke="black" points="531.85,-710.54 408.4,-710.54 408.4,-665.51 531.85,-665.51 531.85,-710.54"/>
<text xml:space="preserve" text-anchor="middle" x="470.12" y="-690.04" font-family="Helvetica,Arial,sans-serif" font-size="14.00">楽天銀行</text>
<text xml:space="preserve" text-anchor="middle" x="470.12" y="-675.04" font-family="Helvetica,Arial,sans-serif" font-size="14.00">(金利 0.28%)</text>
</g>
<!-- 三井住友銀行&#45;&gt;楽天銀行 -->
<g id="edge2" class="edge">
<title>三井住友銀行&#45;&gt;楽天銀行</title>
<path fill="none" stroke="purple" d="M304.88,-629.7C333.64,-639.91 367.72,-652.01 397.36,-662.54"/>
<polygon fill="purple" stroke="purple" points="396.04,-665.78 406.63,-665.83 398.38,-659.19 396.04,-665.78"/>
<text xml:space="preserve" text-anchor="middle" x="327.85" y="-634.68" font-family="Helvetica,Arial,sans-serif" font-size="14.00">自動送金</text>
</g>
<!-- 三井住友カードゴールド -->
<g id="node10" class="node">
<title>三井住友カードゴールド</title>
<polygon fill="#fdf5e6" stroke="black" points="779.93,-1104.04 635.48,-1104.04 635.48,-1044.01 779.93,-1044.01 779.93,-1104.04"/>
<text xml:space="preserve" text-anchor="middle" x="707.7" y="-1083.54" font-family="Helvetica,Arial,sans-serif" font-size="14.00">三井住友カード</text>
<text xml:space="preserve" text-anchor="middle" x="707.7" y="-1068.54" font-family="Helvetica,Arial,sans-serif" font-size="14.00">ゴールド（NL）</text>
<text xml:space="preserve" text-anchor="middle" x="707.7" y="-1052.91" font-family="Helvetica,Arial,sans-serif" font-size="14.00">(Visa)</text>
</g>
<!-- 三井住友銀行&#45;&gt;三井住友カードゴールド -->
<g id="edge6" class="edge">
<title>三井住友銀行&#45;&gt;三井住友カードゴールド</title>
<path fill="none" stroke="purple" d="M297.8,-630C306.54,-634.89 315.09,-640.57 322.4,-647.03 374.6,-693.13 367.28,-721.81 408.4,-778.03 492.24,-892.64 498.93,-937.36 609.85,-1026.03 615.14,-1030.26 620.86,-1034.25 626.79,-1037.98"/>
<polygon fill="purple" stroke="purple" points="624.57,-1040.73 634.95,-1042.86 628.17,-1034.72 624.57,-1040.73"/>
</g>
<!-- Oliveゴールド -->
<g id="node14" class="node">
<title>Oliveゴールド</title>
<polygon fill="#fdf5e6" stroke="black" points="772.8,-813.98 642.6,-813.98 642.6,-768.08 772.8,-768.08 772.8,-813.98"/>
<text xml:space="preserve" text-anchor="middle" x="707.7" y="-793.48" font-family="Helvetica,Arial,sans-serif" font-size="14.00">Oliveゴールド</text>
<text xml:space="preserve" text-anchor="middle" x="707.7" y="-776.98" font-family="Helvetica,Arial,sans-serif" font-size="14.00">(Visa)</text>
</g>
<!-- 三井住友銀行&#45;&gt;Oliveゴールド -->
<g id="edge5" class="edge">
<title>三井住友銀行&#45;&gt;Oliveゴールド</title>
<path fill="none" stroke="purple" d="M293.6,-629.93C303.48,-635.04 313.49,-640.81 322.4,-647.03 365.71,-677.25 361.64,-704.49 408.4,-729.03 478.29,-765.7 568.05,-780.69 630.77,-786.81"/>
<polygon fill="purple" stroke="purple" points="630.37,-790.28 640.65,-787.71 631.01,-783.31 630.37,-790.28"/>
</g>
<!-- 住信SBIネット銀行 -->
<g id="node3" class="node">
<title>住信SBIネット銀行</title>
<polygon fill="#fdf5e6" stroke="black" points="322.4,-710.86 157.7,-710.86 157.7,-665.19 322.4,-665.19 322.4,-710.86"/>
<text xml:space="preserve" text-anchor="middle" x="240.05" y="-690.36" font-family="Helvetica,Arial,sans-serif" font-size="14.00">住信SBIネット銀行</text>
<text xml:space="preserve" text-anchor="middle" x="240.05" y="-674.73" font-family="Helvetica,Arial,sans-serif" font-size="14.00">(金利 0.21%)</text>
</g>
<!-- 楽天カード -->
<g id="node7" class="node">
<title>楽天カード</title>
<polygon fill="#fdf5e6" stroke="black" points="792.68,-910.04 622.73,-910.04 622.73,-850.01 792.68,-850.01 792.68,-910.04"/>
<text xml:space="preserve" text-anchor="middle" x="707.7" y="-889.54" font-family="Helvetica,Arial,sans-serif" font-size="14.00">楽天ゴールドカード</text>
<text xml:space="preserve" text-anchor="middle" x="707.7" y="-874.54" font-family="Helvetica,Arial,sans-serif" font-size="14.00">(JCB)</text>
<text xml:space="preserve" text-anchor="middle" x="707.7" y="-859.54" font-family="Helvetica,Arial,sans-serif" font-size="14.00">(ポイント1%)</text>
</g>
<!-- 楽天銀行&#45;&gt;楽天カード -->
<g id="edge4" class="edge">
<title>楽天銀行&#45;&gt;楽天カード</title>
<path fill="none" stroke="purple" d="M488.86,-710.85C513.47,-741.4 560.56,-795.93 609.85,-832.03 615.51,-836.17 621.59,-840.13 627.84,-843.87"/>
<polygon fill="purple" stroke="purple" points="626.03,-846.87 636.45,-848.81 629.51,-840.8 626.03,-846.87"/>
</g>
<!-- 楽天証券 -->
<g id="node15" class="node">
<title>楽天証券</title>
<polygon fill="#fdf5e6" stroke="black" points="1008.5,-350.03 908.3,-350.03 908.3,-314.03 1008.5,-314.03 1008.5,-350.03"/>
<text xml:space="preserve" text-anchor="middle" x="958.4" y="-326.23" font-family="Helvetica,Arial,sans-serif" font-size="14.00">楽天証券</text>
</g>
<!-- 楽天銀行&#45;&gt;楽天証券 -->
<g id="edge13" class="edge">
<title>楽天銀行&#45;&gt;楽天証券</title>
<path fill="none" stroke="purple" d="M520.52,-665.24C527.83,-660.11 534.64,-654.06 539.85,-647.03 616.77,-543.3 512.01,-449.31 609.85,-365.03 689.35,-296.55 820.26,-305.59 896.69,-318.63"/>
<polygon fill="purple" stroke="purple" points="896.07,-322.07 906.53,-320.39 897.3,-315.18 896.07,-322.07"/>
<text xml:space="preserve" text-anchor="middle" x="517.5" y="-485.42" font-family="Helvetica,Arial,sans-serif" font-size="14.00">マネーブリッジ</text>
</g>
<!-- メルペイ -->
<g id="node30" class="node">
<title>メルペイ</title>
<polygon fill="#fdf5e6" stroke="black" points="1250.58,-1350.03 1150.38,-1350.03 1150.38,-1314.03 1250.58,-1314.03 1250.58,-1350.03"/>
<text xml:space="preserve" text-anchor="middle" x="1200.48" y="-1326.23" font-family="Helvetica,Arial,sans-serif" font-size="14.00">メルペイ</text>
</g>
<!-- 楽天銀行&#45;&gt;メルペイ -->
<g id="edge28" class="edge">
<title>楽天銀行&#45;&gt;メルペイ</title>
<path fill="none" stroke="purple" d="M472.95,-710.99C481.37,-810.95 520.05,-1206.58 609.85,-1284.03 760.73,-1414.15 1021.52,-1374.63 1139.01,-1347.84"/>
<polygon fill="purple" stroke="purple" points="1139.51,-1351.32 1148.45,-1345.64 1137.92,-1344.51 1139.51,-1351.32"/>
</g>
<!-- 会社 -->
<g id="node5" class="node">
<title>会社</title>
<polygon fill="#fdf5e6" stroke="black" points="71.7,-625.03 0,-625.03 0,-589.03 71.7,-589.03 71.7,-625.03"/>
<text xml:space="preserve" text-anchor="middle" x="35.85" y="-601.23" font-family="Helvetica,Arial,sans-serif" font-size="14.00">会社</text>
</g>
<!-- 会社&#45;&gt;三井住友銀行 -->
<g id="edge1" class="edge">
<title>会社&#45;&gt;三井住友銀行</title>
<path fill="none" stroke="purple" d="M72.07,-607.03C97.36,-607.03 132.4,-607.03 163.85,-607.03"/>
<polygon fill="purple" stroke="purple" points="163.74,-610.53 173.74,-607.03 163.74,-603.53 163.74,-610.53"/>
<text xml:space="preserve" text-anchor="middle" x="95.39" y="-593.73" font-family="Helvetica,Arial,sans-serif" font-size="14.00">給与振込</text>
</g>
<!-- 楽天カード&#45;&gt;楽天証券 -->
<g id="edge19" class="edge">
<title>楽天カード&#45;&gt;楽天証券</title>
<path fill="none" stroke="purple" d="M785.56,-849.74C792.98,-844.63 799.85,-838.76 805.55,-832.03 928.09,-687.35 951.76,-445.65 956.32,-361.77"/>
<polygon fill="purple" stroke="purple" points="959.81,-362.02 956.8,-351.87 952.82,-361.68 959.81,-362.02"/>
<text xml:space="preserve" text-anchor="middle" x="1003.8" y="-599.24" font-family="Helvetica,Arial,sans-serif" font-size="14.00">ポイント0.5% 上限月10万円</text>
</g>
<!-- モバイルSuica -->
<g id="node25" class="node">
<title>モバイルSuica</title>
<polygon fill="#fdf5e6" stroke="black" points="1266.7,-1182.03 1134.25,-1182.03 1134.25,-1146.03 1266.7,-1146.03 1266.7,-1182.03"/>
<text xml:space="preserve" text-anchor="middle" x="1200.48" y="-1158.54" font-family="Helvetica,Arial,sans-serif" font-size="14.00">モバイルSuica</text>
</g>
<!-- ビックカメラSuicaカード&#45;&gt;モバイルSuica -->
<g id="edge27" class="edge">
<title>ビックカメラSuicaカード&#45;&gt;モバイルSuica</title>
<path fill="none" stroke="purple" d="M772.11,-1169.25C861.87,-1168.15 1025.81,-1166.15 1122.46,-1164.97"/>
<polygon fill="purple" stroke="purple" points="1122.43,-1168.47 1132.39,-1164.85 1122.34,-1161.47 1122.43,-1168.47"/>
<text xml:space="preserve" text-anchor="middle" x="1048.99" y="-1169.37" font-family="Helvetica,Arial,sans-serif" font-size="14.00">オートチャージ ポイント1.5%</text>
</g>
<!-- Kyash -->
<g id="node20" class="node">
<title>Kyash</title>
<polygon fill="#fdf5e6" stroke="black" points="1026.12,-851.86 890.68,-851.86 890.68,-776.19 1026.12,-776.19 1026.12,-851.86"/>
<text xml:space="preserve" text-anchor="middle" x="958.4" y="-831.36" font-family="Helvetica,Arial,sans-serif" font-size="14.00">Kyash</text>
<text xml:space="preserve" text-anchor="middle" x="958.4" y="-816.36" font-family="Helvetica,Arial,sans-serif" font-size="14.00">(Visa)</text>
<text xml:space="preserve" text-anchor="middle" x="958.4" y="-801.36" font-family="Helvetica,Arial,sans-serif" font-size="14.00">(ポイント0.2%</text>
<text xml:space="preserve" text-anchor="middle" x="958.4" y="-785.73" font-family="Helvetica,Arial,sans-serif" font-size="14.00">月100ptまで)</text>
</g>
<!-- 三井住友カードゴールド&#45;&gt;Kyash -->
<g id="edge22" class="edge">
<title>三井住友カードゴールド&#45;&gt;Kyash</title>
<path fill="none" stroke="purple" d="M780.33,-1045.78C789.53,-1040.15 798.26,-1033.6 805.55,-1026.03 858.25,-971.27 826.81,-928.33 875.55,-870.03 878.53,-866.46 881.79,-863.02 885.25,-859.73"/>
<polygon fill="purple" stroke="purple" points="887.32,-862.57 892.47,-853.31 882.67,-857.33 887.32,-862.57"/>
</g>
<!-- Googleウォレット -->
<g id="node33" class="node">
<title>Googleウォレット</title>
<polygon fill="#fdf5e6" stroke="black" points="1281.7,-1109.98 1119.25,-1109.98 1119.25,-1064.08 1281.7,-1064.08 1281.7,-1109.98"/>
<text xml:space="preserve" text-anchor="middle" x="1200.48" y="-1089.48" font-family="Helvetica,Arial,sans-serif" font-size="14.00">Google ウォレット</text>
<text xml:space="preserve" text-anchor="middle" x="1200.48" y="-1072.98" font-family="Helvetica,Arial,sans-serif" font-size="14.00">タッチ決済</text>
</g>
<!-- 三井住友カードゴールド&#45;&gt;Googleウォレット -->
<g id="edge31" class="edge">
<title>三井住友カードゴールド&#45;&gt;Googleウォレット</title>
<path fill="none" stroke="purple" d="M780.33,-1075.92C866.99,-1078.22 1013.05,-1082.09 1107.84,-1084.6"/>
<polygon fill="purple" stroke="purple" points="1107.54,-1088.09 1117.63,-1084.86 1107.73,-1081.09 1107.54,-1088.09"/>
</g>
<!-- EPOSカード&#45;&gt;Kyash -->
<g id="edge21" class="edge">
<title>EPOSカード&#45;&gt;Kyash</title>
<path fill="none" stroke="purple" d="M775.2,-945.88C785.58,-940.31 796.01,-934.28 805.55,-928.03 839.34,-905.88 843.29,-894.35 875.55,-870.03 880.45,-866.33 885.57,-862.58 890.75,-858.87"/>
<polygon fill="purple" stroke="purple" points="892.75,-861.74 898.89,-853.1 888.71,-856.03 892.75,-861.74"/>
</g>
<!-- ANA Pay -->
<g id="node22" class="node">
<title>ANA Pay</title>
<polygon fill="#fdf5e6" stroke="black" points="1007.38,-1014.23 909.43,-1014.23 909.43,-969.83 1007.38,-969.83 1007.38,-1014.23"/>
<text xml:space="preserve" text-anchor="middle" x="958.4" y="-993.73" font-family="Helvetica,Arial,sans-serif" font-size="14.00">ANA Pay</text>
<text xml:space="preserve" text-anchor="middle" x="958.4" y="-978.73" font-family="Helvetica,Arial,sans-serif" font-size="14.00">(Visa)</text>
</g>
<!-- EPOSカード&#45;&gt;ANA Pay -->
<g id="edge23" class="edge">
<title>EPOSカード&#45;&gt;ANA Pay</title>
<path fill="none" stroke="purple" d="M797.78,-982.4C831.03,-984.4 867.94,-986.63 897.89,-988.44"/>
<polygon fill="purple" stroke="purple" points="897.3,-991.91 907.49,-989.02 897.72,-984.92 897.3,-991.91"/>
</g>
<!-- dカード&#45;&gt;マネックス証券 -->
<g id="edge18" class="edge">
<title>dカード&#45;&gt;マネックス証券</title>
<path fill="none" stroke="purple" d="M768.42,-484.16C781.87,-478.21 795.21,-470.34 805.55,-460.03 861.67,-404.07 819.82,-352.37 875.55,-296.03 879.92,-291.61 884.92,-287.7 890.25,-284.24"/>
<polygon fill="purple" stroke="purple" points="891.94,-287.3 898.82,-279.24 888.42,-281.25 891.94,-287.3"/>
<text xml:space="preserve" text-anchor="middle" x="755.07" y="-368.66" font-family="Helvetica,Arial,sans-serif" font-size="14.00">ポイント1.1% 上限月5万円</text>
</g>
<!-- SBI証券 -->
<g id="node18" class="node">
<title>SBI証券</title>
<polygon fill="#fdf5e6" stroke="black" points="1005.13,-124.03 911.68,-124.03 911.68,-88.03 1005.13,-88.03 1005.13,-124.03"/>
<text xml:space="preserve" text-anchor="middle" x="958.4" y="-100.98" font-family="Helvetica,Arial,sans-serif" font-size="14.00">SBI証券</text>
</g>
<!-- Oliveゴールド&#45;&gt;SBI証券 -->
<g id="edge16" class="edge">
<title>Oliveゴールド&#45;&gt;SBI証券</title>
<path fill="none" stroke="purple" d="M773.18,-774.96C785.63,-769.05 797.34,-760.99 805.55,-750.03 968.53,-532.25 714.09,-360.93 875.55,-142.03 882.05,-133.22 891.17,-126.53 900.99,-121.46"/>
<polygon fill="purple" stroke="purple" points="902.35,-124.69 910.01,-117.38 899.46,-118.32 902.35,-124.69"/>
<text xml:space="preserve" text-anchor="middle" x="924.23" y="-432.58" font-family="Helvetica,Arial,sans-serif" font-size="14.00">ポイント1% 上限月10万円</text>
</g>
<!-- SBI証券&#45;&gt;SBI新生銀行 -->
<g id="edge14" class="edge">
<title>SBI証券&#45;&gt;SBI新生銀行</title>
<path fill="none" stroke="purple" d="M911.28,-82.85C838.97,-50.17 698.09,-1.72 609.85,-70.03 528.9,-132.7 486.61,-462.18 474.7,-571.07"/>
<polygon fill="purple" stroke="purple" points="909.51,-85.89 920.06,-86.9 912.45,-79.53 909.51,-85.89"/>
<polygon fill="purple" stroke="purple" points="471.24,-570.53 473.65,-580.85 478.2,-571.28 471.24,-570.53"/>
<text xml:space="preserve" text-anchor="middle" x="465.9" y="-282.32" font-family="Helvetica,Arial,sans-serif" font-size="14.00">SBIハイパー預金</text>
</g>
<!-- 楽天キャッシュ -->
<g id="node19" class="node">
<title>楽天キャッシュ</title>
<polygon fill="#fdf5e6" stroke="black" points="1510.65,-905.03 1367.7,-905.03 1367.7,-869.03 1510.65,-869.03 1510.65,-905.03"/>
<text xml:space="preserve" text-anchor="middle" x="1439.18" y="-881.23" font-family="Helvetica,Arial,sans-serif" font-size="14.00">楽天キャッシュ</text>
</g>
<!-- 楽天キャッシュ&#45;&gt;楽天証券 -->
<g id="edge20" class="edge">
<title>楽天キャッシュ&#45;&gt;楽天証券</title>
<path fill="none" stroke="purple" d="M1428.05,-868.64C1404.82,-827.15 1344.82,-723.92 1281.7,-647.03 1185.38,-529.68 1049.91,-409.25 989.97,-357.83"/>
<polygon fill="purple" stroke="purple" points="992.38,-355.28 982.51,-351.45 987.84,-360.61 992.38,-355.28"/>
<text xml:space="preserve" text-anchor="middle" x="1144.33" y="-573.65" font-family="Helvetica,Arial,sans-serif" font-size="14.00">ポイント0.5% 上限月5万円</text>
</g>
<!-- 楽天ペイ -->
<g id="node28" class="node">
<title>楽天ペイ</title>
<polygon fill="#fdf5e6" stroke="black" points="1489.28,-977.03 1389.08,-977.03 1389.08,-941.03 1489.28,-941.03 1489.28,-977.03"/>
<text xml:space="preserve" text-anchor="middle" x="1439.18" y="-953.23" font-family="Helvetica,Arial,sans-serif" font-size="14.00">楽天ペイ</text>
</g>
<!-- 楽天キャッシュ&#45;&gt;楽天ペイ -->
<g id="edge35" class="edge">
<title>楽天キャッシュ&#45;&gt;楽天ペイ</title>
<path fill="none" stroke="purple" d="M1439.18,-905.31C1439.18,-913.29 1439.18,-921.28 1439.18,-929.27"/>
<polygon fill="purple" stroke="purple" points="1435.68,-929.05 1439.18,-939.05 1442.68,-929.05 1435.68,-929.05"/>
<text xml:space="preserve" text-anchor="middle" x="1423.43" y="-909.6" font-family="Helvetica,Arial,sans-serif" font-size="14.00">1.5%</text>
</g>
<!-- Kyash&#45;&gt;PayPal -->
<g id="edge24" class="edge">
<title>Kyash&#45;&gt;PayPal</title>
<path fill="none" stroke="purple" d="M1026.59,-777.36C1068.06,-754.74 1120.03,-726.38 1156.11,-706.69"/>
<polygon fill="purple" stroke="purple" points="1157.41,-709.97 1164.51,-702.11 1154.06,-703.82 1157.41,-709.97"/>
</g>
<!-- QUICPay+ -->
<g id="node32" class="node">
<title>QUICPay+</title>
<polygon fill="#fdf5e6" stroke="black" points="1255.08,-866.03 1145.88,-866.03 1145.88,-830.03 1255.08,-830.03 1255.08,-866.03"/>
<text xml:space="preserve" text-anchor="middle" x="1200.48" y="-842.23" font-family="Helvetica,Arial,sans-serif" font-size="14.00">QUICPay+</text>
</g>
<!-- Kyash&#45;&gt;QUICPay+ -->
<g id="edge32" class="edge">
<title>Kyash&#45;&gt;QUICPay+</title>
<path fill="none" stroke="purple" d="M1026.59,-823.54C1060.37,-828.33 1101.12,-834.1 1134.57,-838.83"/>
<polygon fill="purple" stroke="purple" points="1133.72,-842.25 1144.11,-840.19 1134.7,-835.32 1133.72,-842.25"/>
</g>
<!-- VポイントPay -->
<g id="node21" class="node">
<title>VポイントPay</title>
<polygon fill="#fdf5e6" stroke="black" points="1024.25,-933.98 892.55,-933.98 892.55,-888.08 1024.25,-888.08 1024.25,-933.98"/>
<text xml:space="preserve" text-anchor="middle" x="958.4" y="-913.48" font-family="Helvetica,Arial,sans-serif" font-size="14.00">VポイントPay</text>
<text xml:space="preserve" text-anchor="middle" x="958.4" y="-896.98" font-family="Helvetica,Arial,sans-serif" font-size="14.00">(Visa)</text>
</g>
<!-- 楽天Edy -->
<g id="node27" class="node">
<title>楽天Edy</title>
<polygon fill="#fdf5e6" stroke="black" points="1270.45,-947.86 1130.5,-947.86 1130.5,-902.19 1270.45,-902.19 1270.45,-947.86"/>
<text xml:space="preserve" text-anchor="middle" x="1200.48" y="-927.36" font-family="Helvetica,Arial,sans-serif" font-size="14.00">楽天Edy</text>
<text xml:space="preserve" text-anchor="middle" x="1200.48" y="-911.73" font-family="Helvetica,Arial,sans-serif" font-size="14.00">(ポイント0.5%)</text>
</g>
<!-- ANA Pay&#45;&gt;楽天Edy -->
<g id="edge33" class="edge">
<title>ANA Pay&#45;&gt;楽天Edy</title>
<path fill="none" stroke="purple" d="M1007.69,-978.55C1039.72,-969.61 1082.51,-957.67 1119.55,-947.33"/>
<polygon fill="purple" stroke="purple" points="1120.18,-950.79 1128.88,-944.73 1118.3,-944.05 1120.18,-950.79"/>
</g>
<!-- nanaco -->
<g id="node26" class="node">
<title>nanaco</title>
<polygon fill="#fdf5e6" stroke="black" points="1262.2,-1028.54 1138.75,-1028.54 1138.75,-983.51 1262.2,-983.51 1262.2,-1028.54"/>
<text xml:space="preserve" text-anchor="middle" x="1200.48" y="-1008.04" font-family="Helvetica,Arial,sans-serif" font-size="14.00">nanaco</text>
<text xml:space="preserve" text-anchor="middle" x="1200.48" y="-993.04" font-family="Helvetica,Arial,sans-serif" font-size="14.00">(ほぼ未使用)</text>
</g>
<!-- 楽天Edy&#45;&gt;楽天キャッシュ -->
<g id="edge34" class="edge">
<title>楽天Edy&#45;&gt;楽天キャッシュ</title>
<path fill="none" stroke="purple" d="M1270.89,-913.88C1297.63,-909.59 1328.41,-904.65 1356.22,-900.18"/>
<polygon fill="purple" stroke="purple" points="1356.71,-903.65 1366.03,-898.61 1355.6,-896.74 1356.71,-903.65"/>
<text xml:space="preserve" text-anchor="middle" x="1309.16" y="-892.81" font-family="Helvetica,Arial,sans-serif" font-size="14.00">0%</text>
</g>
<!-- iD -->
<g id="node29" class="node">
<title>iD</title>
<polygon fill="#fdf5e6" stroke="black" points="1467.15,-1278.03 1411.2,-1278.03 1411.2,-1242.03 1467.15,-1242.03 1467.15,-1278.03"/>
<text xml:space="preserve" text-anchor="middle" x="1439.18" y="-1254.23" font-family="Helvetica,Arial,sans-serif" font-size="14.00">iD</text>
</g>
<!-- メルペイ&#45;&gt;iD -->
<g id="edge29" class="edge">
<title>メルペイ&#45;&gt;iD</title>
<path fill="none" stroke="purple" d="M1250.81,-1317.02C1295.27,-1303.5 1359.7,-1283.9 1400.25,-1271.56"/>
<polygon fill="purple" stroke="purple" points="1401.01,-1274.99 1409.56,-1268.73 1398.98,-1268.29 1401.01,-1274.99"/>
</g>
<!-- メルコイン -->
<g id="node31" class="node">
<title>メルコイン</title>
<polygon fill="#fdf5e6" stroke="black" points="1496.4,-1350.03 1381.95,-1350.03 1381.95,-1314.03 1496.4,-1314.03 1496.4,-1350.03"/>
<text xml:space="preserve" text-anchor="middle" x="1439.18" y="-1326.23" font-family="Helvetica,Arial,sans-serif" font-size="14.00">メルコイン</text>
</g>
<!-- メルペイ&#45;&gt;メルコイン -->
<g id="edge30" class="edge">
<title>メルペイ&#45;&gt;メルコイン</title>
<path fill="none" stroke="purple" d="M1250.81,-1332.03C1285.58,-1332.03 1332.58,-1332.03 1370.8,-1332.03"/>
<polygon fill="purple" stroke="purple" points="1370.33,-1335.53 1380.33,-1332.03 1370.33,-1328.53 1370.33,-1335.53"/>
</g>
<!-- invisible1 -->
<!-- invisible1&#45;&gt;SBI証券 -->
</g>
</svg>
